<?xml version="1.0" encoding="UTF-8" standalone="no"?>
<!-- Created with Inkscape (http://www.inkscape.org/) -->

<svg
   width="135.88965mm"
   height="58.218781mm"
   viewBox="0 0 135.88963 58.218778"
   version="1.1"
   id="svg5"
   xmlns="http://www.w3.org/2000/svg"
   xmlns:svg="http://www.w3.org/2000/svg">
  <defs
     id="defs2">
    <rect
       x="392.61206"
       y="458.72198"
       width="443.88098"
       height="381.8186"
       id="rect3026" />
  </defs>
  <g
     id="layer1"
     style="display:inline"
     transform="translate(-57.055176,-95.890611)">
    <rect
       style="fill:none;stroke-width:0.569925"
       id="rect99"
       width="250"
       height="250"
       x="-1.4210855e-14"
       y="0" />
  </g>
  <g
     id="layer3"
     style="display:inline"
     transform="translate(-57.055176,-95.890611)">
    <g
       aria-label="ZIPPA"
       id="text4000"
       style="font-weight:bold;font-size:50.8px;line-height:1.25;font-family:'work sans';-inkscape-font-specification:'work sans Bold';letter-spacing:0px;word-spacing:0px;stroke-width:0.264583">
      <path
         d="m 57.055176,154.10939 v -6.2992 l 17.170399,-22.7076 v -0.3556 l -16.103599,0.4572 v -6.8072 h 25.552399 v 6.1468 l -16.8148,22.86 v 0.3048 l 17.0688,-0.4064 v 6.8072 z"
         style="font-weight:900;font-family:Ruda;-inkscape-font-specification:'Ruda Heavy';fill:#ff1717"
         id="path35" />
      <path
         d="m 89.465502,154.10939 0.2032,-16.4592 -0.2032,-19.2532 h 8.026399 l -0.1524,15.9004 0.1524,19.812 z"
         style="font-weight:900;font-family:Ruda;-inkscape-font-specification:'Ruda Heavy';fill:#ff1717"
         id="path37" />
      <path
         d="m 105.92467,154.10939 0.2032,-16.6624 -0.2032,-18.9992 q 0,0 1.3208,-0.1016 1.3716,-0.1016 3.4544,-0.254 2.1336,-0.1524 4.5212,-0.254 2.4384,-0.1016 4.572,-0.1016 5.5372,0 8.5344,3.1496 3.048,3.1496 3.048,9.398 0,3.9116 -1.0668,6.4516 -1.0668,2.54 -2.8956,4.0132 -1.8288,1.4224 -4.1148,2.032 -2.2352,0.5588 -4.6228,0.5588 -1.9304,0 -3.3528,-0.0508 -1.4224,-0.1016 -1.4224,-0.1016 v 10.922 z m 12.9032,-17.1196 q 1.2192,0 2.032,-0.2032 0.8128,-0.254 1.1684,-0.5588 0.5588,-0.5588 0.8128,-2.032 0.254,-1.4732 0.254,-4.318 0,-2.0828 -0.2032,-3.0988 -0.1524,-1.016 -0.4064,-1.3716 -0.254,-0.4064 -0.508,-0.6096 -0.3048,-0.3048 -1.1684,-0.508 -0.8636,-0.2032 -2.3876,-0.2032 -1.1684,0 -2.3876,0.1016 -1.1684,0.0508 -2.1336,0.1524 v 12.2936 q 0,0 1.4224,0.2032 1.4224,0.1524 3.5052,0.1524 z"
         style="font-weight:900;font-family:Ruda;-inkscape-font-specification:'Ruda Heavy';fill:#ff1717"
         id="path39" />
      <path
         d="m 137.47139,154.10939 0.2032,-16.6624 -0.2032,-18.9992 q 0,0 1.3208,-0.1016 1.3716,-0.1016 3.4544,-0.254 2.1336,-0.1524 4.5212,-0.254 2.4384,-0.1016 4.572,-0.1016 5.5372,0 8.5344,3.1496 3.048,3.1496 3.048,9.398 0,3.9116 -1.0668,6.4516 -1.0668,2.54 -2.8956,4.0132 -1.8288,1.4224 -4.1148,2.032 -2.2352,0.5588 -4.6228,0.5588 -1.9304,0 -3.3528,-0.0508 -1.4224,-0.1016 -1.4224,-0.1016 v 10.922 z m 12.9032,-17.1196 q 1.2192,0 2.032,-0.2032 0.8128,-0.254 1.1684,-0.5588 0.5588,-0.5588 0.8128,-2.032 0.254,-1.4732 0.254,-4.318 0,-2.0828 -0.2032,-3.0988 -0.1524,-1.016 -0.4064,-1.3716 -0.254,-0.4064 -0.508,-0.6096 -0.3048,-0.3048 -1.1684,-0.508 -0.8636,-0.2032 -2.3876,-0.2032 -1.1684,0 -2.3876,0.1016 -1.1684,0.0508 -2.1336,0.1524 v 12.2936 q 0,0 1.4224,0.2032 1.4224,0.1524 3.5052,0.1524 z"
         style="font-weight:900;font-family:Ruda;-inkscape-font-specification:'Ruda Heavy';fill:#ff1717"
         id="path41" />
      <path
         d="m 162.97282,154.10939 9.8044,-35.7124 h 10.3632 l 9.8044,35.7124 h -8.2296 l -2.7432,-11.3792 4.4196,3.4544 h -16.8656 l 4.4196,-3.4544 -2.7432,11.3792 z m 10.8204,-11.176 -2.7432,-3.4544 h 13.8176 l -2.7432,3.4544 -4.826,-20.574 4.3688,3.4544 h -7.4168 l 4.3688,-3.4544 z"
         style="font-weight:900;font-family:Ruda;-inkscape-font-specification:'Ruda Heavy';fill:#ff1717"
         id="path43" />
    </g>
    <g
       transform="matrix(0.03527778,0,0,-0.03527778,23.043482,174.71881)"
       fill="#000000"
       stroke="none"
       id="g14">
      <path
         d="m 2211.9299,2174.4385 c -54.0553,-33.0338 -117.1198,-81.0829 -138.1414,-105.1075 -42.043,-51.0523 -84.086,-174.1782 -84.086,-249.2551 v -49.5507 l 79.5814,52.5538 c 166.6706,108.1106 189.1936,127.6306 222.2274,195.1997 34.5354,72.0738 57.0584,216.2213 34.5354,216.2213 -7.5077,-1.5015 -58.56,-28.5292 -114.1168,-60.0615 z"
         id="path2"
         style="fill:#216b39;fill-opacity:1;stroke-width:1.50154" />
    </g>
  </g>
</svg>
